<svg viewBox="0 0 64 64" xmlns="http://www.w3.org/2000/svg" role="img" aria-label="Kart Kutusu">
<g transform="rotate(-13 26 22)"><rect x="15" y="7" width="22" height="30" rx="4" fill="#e9eefb"/><rect x="19" y="13" width="14" height="2.6" rx="1.3" fill="#93a3bd"/><rect x="19" y="19" width="10" height="2.6" rx="1.3" fill="#93a3bd"/></g>
<g transform="rotate(11 38 20)"><rect x="27" y="5" width="22" height="30" rx="4" fill="#eab308"/><rect x="31" y="11" width="14" height="2.6" rx="1.3" fill="#7a5c04"/><rect x="31" y="17" width="10" height="2.6" rx="1.3" fill="#7a5c04"/></g>
<path d="M6 30 L32 38 L32 60.4 a8 8 0 0 1 -2 -.6 L9 53.8 A4 4 0 0 1 6 50 Z" fill="#3b82f6"/>
<path d="M58 30 L58 50 a4 4 0 0 1 -3 3.8 L34 59.8 a8 8 0 0 1 -2 .6 L32 38 Z" fill="#2563eb"/>
<path d="M6 30 L32 22 L58 30 L32 38 Z" fill="#60a5fa"/>
</svg>
